<mxfile>
    <diagram id="K7zrEvCK596EJoeQmPqT" name="Page-1">
        <mxGraphModel dx="1060" dy="516" grid="1" gridSize="10" guides="1" tooltips="1" connect="1" arrows="1" fold="1" page="1" pageScale="1" pageWidth="827" pageHeight="1169" math="0" shadow="0">
            <root>
                <mxCell id="0"/>
                <mxCell id="1" parent="0"/>
                <mxCell id="5NDpW_lBINnjD9rPaOJI-3" value="int objetos = 0;&lt;br&gt;int totalObjetos =4;&lt;br&gt;var globo = new object Globo;&lt;br&gt;var&amp;nbsp; biberon = new object&amp;nbsp;&lt;span id=&quot;docs-internal-guid-bed3e04a-7fff-10f9-2f48-ff0e256e0e4b&quot;&gt;&lt;span style=&quot;font-size: 10pt ; font-family: &amp;#34;times&amp;#34; , serif ; background-color: transparent ; vertical-align: baseline&quot;&gt;Biberon&lt;/span&gt;&lt;/span&gt;;&lt;br&gt;var&amp;nbsp; sonaja = new object &lt;font face=&quot;times, serif&quot;&gt;&lt;span style=&quot;font-size: 13.3333px&quot;&gt;Chupon&lt;/span&gt;&lt;/font&gt;;&lt;br&gt;var&amp;nbsp; oso = new object&amp;nbsp;&lt;span id=&quot;docs-internal-guid-bed3e04a-7fff-10f9-2f48-ff0e256e0e4b&quot;&gt;&lt;span style=&quot;font-size: 10pt ; font-family: &amp;#34;times&amp;#34; , serif ; background-color: transparent ; vertical-align: baseline&quot;&gt;Oso&lt;/span&gt;&lt;/span&gt;;&lt;br&gt;bool[] seleccionado = bool[4];" style="edgeStyle=orthogonalEdgeStyle;rounded=0;orthogonalLoop=1;jettySize=auto;html=1;entryX=0.5;entryY=0;entryDx=0;entryDy=0;" parent="1" source="5NDpW_lBINnjD9rPaOJI-1" target="5NDpW_lBINnjD9rPaOJI-2" edge="1">
                    <mxGeometry relative="1" as="geometry"/>
                </mxCell>
                <mxCell id="5NDpW_lBINnjD9rPaOJI-1" value="1" style="ellipse;whiteSpace=wrap;html=1;aspect=fixed;" parent="1" vertex="1">
                    <mxGeometry x="100" y="100" width="40" height="40" as="geometry"/>
                </mxCell>
                <mxCell id="5NDpW_lBINnjD9rPaOJI-36" value="enable objeto globo&lt;br&gt;enable objeto biberon" style="edgeStyle=orthogonalEdgeStyle;rounded=0;orthogonalLoop=1;jettySize=auto;html=1;" parent="1" source="5NDpW_lBINnjD9rPaOJI-2" target="5NDpW_lBINnjD9rPaOJI-4" edge="1">
                    <mxGeometry relative="1" as="geometry"/>
                </mxCell>
                <mxCell id="5NDpW_lBINnjD9rPaOJI-2" value="2" style="ellipse;whiteSpace=wrap;html=1;aspect=fixed;" parent="1" vertex="1">
                    <mxGeometry x="100" y="270" width="40" height="40" as="geometry"/>
                </mxCell>
                <mxCell id="5NDpW_lBINnjD9rPaOJI-38" value="evento SelecciÃ³n oso" style="rounded=0;orthogonalLoop=1;jettySize=auto;html=1;entryX=0;entryY=0.5;entryDx=0;entryDy=0;" parent="1" edge="1">
                    <mxGeometry relative="1" as="geometry">
                        <mxPoint x="137.43151074249113" y="390.1947752073488" as="sourcePoint"/>
                        <mxPoint x="280" y="310" as="targetPoint"/>
                    </mxGeometry>
                </mxCell>
                <mxCell id="5NDpW_lBINnjD9rPaOJI-39" value="evento Seleccion chupon" style="rounded=0;orthogonalLoop=1;jettySize=auto;html=1;entryX=0;entryY=0.5;entryDx=0;entryDy=0;" parent="1" source="5NDpW_lBINnjD9rPaOJI-4" target="5NDpW_lBINnjD9rPaOJI-26" edge="1">
                    <mxGeometry relative="1" as="geometry"/>
                </mxCell>
                <mxCell id="5NDpW_lBINnjD9rPaOJI-40" value="evento Seleccion biberon&amp;nbsp;" style="rounded=0;orthogonalLoop=1;jettySize=auto;html=1;entryX=0;entryY=0.5;entryDx=0;entryDy=0;" parent="1" source="5NDpW_lBINnjD9rPaOJI-4" target="5NDpW_lBINnjD9rPaOJI-13" edge="1">
                    <mxGeometry x="-0.0084" y="4" relative="1" as="geometry">
                        <mxPoint as="offset"/>
                    </mxGeometry>
                </mxCell>
                <mxCell id="5NDpW_lBINnjD9rPaOJI-41" value="evento seleccion globo" style="rounded=0;orthogonalLoop=1;jettySize=auto;html=1;entryX=0;entryY=0.5;entryDx=0;entryDy=0;" parent="1" source="5NDpW_lBINnjD9rPaOJI-4" target="5NDpW_lBINnjD9rPaOJI-16" edge="1">
                    <mxGeometry relative="1" as="geometry"/>
                </mxCell>
                <mxCell id="5NDpW_lBINnjD9rPaOJI-4" value="3" style="ellipse;whiteSpace=wrap;html=1;aspect=fixed;" parent="1" vertex="1">
                    <mxGeometry x="100" y="380" width="40" height="40" as="geometry"/>
                </mxCell>
                <mxCell id="5NDpW_lBINnjD9rPaOJI-42" value="reproducir contenido&lt;br&gt;oso" style="edgeStyle=none;rounded=0;orthogonalLoop=1;jettySize=auto;html=1;entryX=0;entryY=0.5;entryDx=0;entryDy=0;" parent="1" source="5NDpW_lBINnjD9rPaOJI-8" target="5NDpW_lBINnjD9rPaOJI-25" edge="1">
                    <mxGeometry relative="1" as="geometry"/>
                </mxCell>
                <mxCell id="5NDpW_lBINnjD9rPaOJI-8" value="4" style="ellipse;whiteSpace=wrap;html=1;aspect=fixed;" parent="1" vertex="1">
                    <mxGeometry x="280" y="290" width="40" height="40" as="geometry"/>
                </mxCell>
                <mxCell id="5NDpW_lBINnjD9rPaOJI-44" value="reproducir contenido&lt;br&gt;biberon" style="edgeStyle=none;rounded=0;orthogonalLoop=1;jettySize=auto;html=1;entryX=0;entryY=0.5;entryDx=0;entryDy=0;" parent="1" source="5NDpW_lBINnjD9rPaOJI-13" target="5NDpW_lBINnjD9rPaOJI-19" edge="1">
                    <mxGeometry relative="1" as="geometry"/>
                </mxCell>
                <mxCell id="5NDpW_lBINnjD9rPaOJI-13" value="6" style="ellipse;whiteSpace=wrap;html=1;aspect=fixed;" parent="1" vertex="1">
                    <mxGeometry x="280" y="440" width="40" height="40" as="geometry"/>
                </mxCell>
                <mxCell id="5NDpW_lBINnjD9rPaOJI-14" value="9" style="ellipse;whiteSpace=wrap;html=1;aspect=fixed;" parent="1" vertex="1">
                    <mxGeometry x="450" y="350" width="40" height="40" as="geometry"/>
                </mxCell>
                <mxCell id="5NDpW_lBINnjD9rPaOJI-45" value="reproducir contenido &lt;br&gt;globo" style="edgeStyle=none;rounded=0;orthogonalLoop=1;jettySize=auto;html=1;entryX=0;entryY=0.5;entryDx=0;entryDy=0;" parent="1" source="5NDpW_lBINnjD9rPaOJI-16" target="5NDpW_lBINnjD9rPaOJI-23" edge="1">
                    <mxGeometry relative="1" as="geometry"/>
                </mxCell>
                <mxCell id="5NDpW_lBINnjD9rPaOJI-16" value="7" style="ellipse;whiteSpace=wrap;html=1;aspect=fixed;" parent="1" vertex="1">
                    <mxGeometry x="280" y="500" width="40" height="40" as="geometry"/>
                </mxCell>
                <mxCell id="5NDpW_lBINnjD9rPaOJI-56" style="edgeStyle=none;rounded=0;orthogonalLoop=1;jettySize=auto;html=1;entryX=1;entryY=0;entryDx=0;entryDy=0;" parent="1" source="5NDpW_lBINnjD9rPaOJI-17" target="5NDpW_lBINnjD9rPaOJI-24" edge="1">
                    <mxGeometry relative="1" as="geometry"/>
                </mxCell>
                <mxCell id="iPIs3-i2ElNaRHTesmu4-25" value="Pedir seleccionar&lt;br&gt;oso" style="edgeLabel;html=1;align=center;verticalAlign=middle;resizable=0;points=[];" parent="5NDpW_lBINnjD9rPaOJI-56" vertex="1" connectable="0">
                    <mxGeometry x="-0.235" y="4" relative="1" as="geometry">
                        <mxPoint as="offset"/>
                    </mxGeometry>
                </mxCell>
                <mxCell id="5NDpW_lBINnjD9rPaOJI-57" value="Pedir seleccionar&lt;br&gt;chupon" style="edgeStyle=none;rounded=0;orthogonalLoop=1;jettySize=auto;html=1;entryX=0;entryY=0;entryDx=0;entryDy=0;" parent="1" source="5NDpW_lBINnjD9rPaOJI-18" target="5NDpW_lBINnjD9rPaOJI-24" edge="1">
                    <mxGeometry x="-0.4225" y="-9" relative="1" as="geometry">
                        <mxPoint as="offset"/>
                    </mxGeometry>
                </mxCell>
                <mxCell id="iPIs3-i2ElNaRHTesmu4-26" value="enable objeto chupon" style="edgeLabel;html=1;align=center;verticalAlign=middle;resizable=0;points=[];" parent="5NDpW_lBINnjD9rPaOJI-57" vertex="1" connectable="0">
                    <mxGeometry x="-0.6626" y="-1" relative="1" as="geometry">
                        <mxPoint as="offset"/>
                    </mxGeometry>
                </mxCell>
                <mxCell id="5NDpW_lBINnjD9rPaOJI-18" value="15" style="ellipse;whiteSpace=wrap;html=1;aspect=fixed;" parent="1" vertex="1">
                    <mxGeometry x="560" y="570" width="40" height="40" as="geometry"/>
                </mxCell>
                <mxCell id="5NDpW_lBINnjD9rPaOJI-19" value="10" style="ellipse;whiteSpace=wrap;html=1;aspect=fixed;" parent="1" vertex="1">
                    <mxGeometry x="450" y="440" width="40" height="40" as="geometry"/>
                </mxCell>
                <mxCell id="iPIs3-i2ElNaRHTesmu4-16" value="enable &lt;br&gt;objeto biberon&lt;br&gt;Pedir &lt;br&gt;seleccionar &lt;br&gt;biberon" style="edgeStyle=none;rounded=0;orthogonalLoop=1;jettySize=auto;html=1;" parent="1" source="5NDpW_lBINnjD9rPaOJI-20" target="5NDpW_lBINnjD9rPaOJI-24" edge="1">
                    <mxGeometry relative="1" as="geometry"/>
                </mxCell>
                <mxCell id="5NDpW_lBINnjD9rPaOJI-20" value="16" style="ellipse;whiteSpace=wrap;html=1;aspect=fixed;" parent="1" vertex="1">
                    <mxGeometry x="670" y="590" width="40" height="40" as="geometry"/>
                </mxCell>
                <mxCell id="5NDpW_lBINnjD9rPaOJI-51" value="objetos == 1;" style="rounded=0;orthogonalLoop=1;jettySize=auto;html=1;entryX=0;entryY=0;entryDx=0;entryDy=0;" parent="1" source="5NDpW_lBINnjD9rPaOJI-21" target="5NDpW_lBINnjD9rPaOJI-17" edge="1">
                    <mxGeometry relative="1" as="geometry"/>
                </mxCell>
                <mxCell id="5NDpW_lBINnjD9rPaOJI-53" value="objetos == 2;" style="edgeStyle=none;rounded=0;orthogonalLoop=1;jettySize=auto;html=1;entryX=1;entryY=0;entryDx=0;entryDy=0;" parent="1" source="5NDpW_lBINnjD9rPaOJI-21" target="5NDpW_lBINnjD9rPaOJI-18" edge="1">
                    <mxGeometry relative="1" as="geometry"/>
                </mxCell>
                <mxCell id="5NDpW_lBINnjD9rPaOJI-54" value="objetos == 3;" style="edgeStyle=none;rounded=0;orthogonalLoop=1;jettySize=auto;html=1;entryX=0.5;entryY=0;entryDx=0;entryDy=0;" parent="1" source="5NDpW_lBINnjD9rPaOJI-21" target="5NDpW_lBINnjD9rPaOJI-20" edge="1">
                    <mxGeometry relative="1" as="geometry"/>
                </mxCell>
                <mxCell id="5NDpW_lBINnjD9rPaOJI-61" value="objetos == 0;" style="edgeStyle=orthogonalEdgeStyle;rounded=0;orthogonalLoop=1;jettySize=auto;html=1;entryX=0.5;entryY=0;entryDx=0;entryDy=0;" parent="1" source="5NDpW_lBINnjD9rPaOJI-21" target="iPIs3-i2ElNaRHTesmu4-19" edge="1">
                    <mxGeometry x="0.1667" y="-10" relative="1" as="geometry">
                        <Array as="points">
                            <mxPoint x="550" y="510"/>
                            <mxPoint x="550" y="570"/>
                            <mxPoint x="510" y="570"/>
                        </Array>
                        <mxPoint x="540" y="580" as="targetPoint"/>
                        <mxPoint as="offset"/>
                    </mxGeometry>
                </mxCell>
                <mxCell id="5NDpW_lBINnjD9rPaOJI-21" value="13" style="ellipse;whiteSpace=wrap;html=1;aspect=fixed;" parent="1" vertex="1">
                    <mxGeometry x="670" y="490" width="40" height="40" as="geometry"/>
                </mxCell>
                <mxCell id="5NDpW_lBINnjD9rPaOJI-23" value="11" style="ellipse;whiteSpace=wrap;html=1;aspect=fixed;" parent="1" vertex="1">
                    <mxGeometry x="450" y="500" width="40" height="40" as="geometry"/>
                </mxCell>
                <mxCell id="5NDpW_lBINnjD9rPaOJI-65" value="objetos == 4;" style="edgeStyle=orthogonalEdgeStyle;rounded=0;orthogonalLoop=1;jettySize=auto;html=1;entryX=0.5;entryY=0;entryDx=0;entryDy=0;" parent="1" source="5NDpW_lBINnjD9rPaOJI-24" target="5NDpW_lBINnjD9rPaOJI-66" edge="1">
                    <mxGeometry relative="1" as="geometry">
                        <mxPoint x="510" y="810" as="targetPoint"/>
                        <Array as="points"/>
                    </mxGeometry>
                </mxCell>
                <mxCell id="iPIs3-i2ElNaRHTesmu4-17" style="edgeStyle=orthogonalEdgeStyle;rounded=0;orthogonalLoop=1;jettySize=auto;html=1;entryX=0.5;entryY=1;entryDx=0;entryDy=0;" parent="1" source="5NDpW_lBINnjD9rPaOJI-24" target="5NDpW_lBINnjD9rPaOJI-4" edge="1">
                    <mxGeometry relative="1" as="geometry">
                        <Array as="points">
                            <mxPoint x="120" y="770"/>
                        </Array>
                    </mxGeometry>
                </mxCell>
                <mxCell id="5" value="&lt;font style=&quot;font-size: 11px&quot;&gt;Mostrar &quot;Sigue intentando&quot;&lt;/font&gt;" style="edgeLabel;html=1;align=center;verticalAlign=middle;resizable=0;points=[];" vertex="1" connectable="0" parent="iPIs3-i2ElNaRHTesmu4-17">
                    <mxGeometry x="-0.4202" y="1" relative="1" as="geometry">
                        <mxPoint as="offset"/>
                    </mxGeometry>
                </mxCell>
                <mxCell id="5NDpW_lBINnjD9rPaOJI-24" value="18" style="ellipse;whiteSpace=wrap;html=1;aspect=fixed;" parent="1" vertex="1">
                    <mxGeometry x="670" y="740" width="40" height="40" as="geometry"/>
                </mxCell>
                <mxCell id="iPIs3-i2ElNaRHTesmu4-5" style="edgeStyle=none;rounded=0;orthogonalLoop=1;jettySize=auto;html=1;" parent="1" source="5NDpW_lBINnjD9rPaOJI-25" target="iPIs3-i2ElNaRHTesmu4-3" edge="1">
                    <mxGeometry relative="1" as="geometry"/>
                </mxCell>
                <mxCell id="iPIs3-i2ElNaRHTesmu4-6" value="seleccionado[0]=true" style="edgeLabel;html=1;align=center;verticalAlign=middle;resizable=0;points=[];" parent="iPIs3-i2ElNaRHTesmu4-5" vertex="1" connectable="0">
                    <mxGeometry x="-0.2632" y="3" relative="1" as="geometry">
                        <mxPoint as="offset"/>
                    </mxGeometry>
                </mxCell>
                <mxCell id="5NDpW_lBINnjD9rPaOJI-25" value="8" style="ellipse;whiteSpace=wrap;html=1;aspect=fixed;" parent="1" vertex="1">
                    <mxGeometry x="450" y="290" width="40" height="40" as="geometry"/>
                </mxCell>
                <mxCell id="5NDpW_lBINnjD9rPaOJI-43" style="edgeStyle=none;rounded=0;orthogonalLoop=1;jettySize=auto;html=1;entryX=0;entryY=0.5;entryDx=0;entryDy=0;" parent="1" source="5NDpW_lBINnjD9rPaOJI-26" target="5NDpW_lBINnjD9rPaOJI-14" edge="1">
                    <mxGeometry relative="1" as="geometry"/>
                </mxCell>
                <mxCell id="iPIs3-i2ElNaRHTesmu4-1" value="reproducir contenido&lt;br&gt;chupon" style="edgeLabel;html=1;align=center;verticalAlign=middle;resizable=0;points=[];" parent="5NDpW_lBINnjD9rPaOJI-43" vertex="1" connectable="0">
                    <mxGeometry x="-0.2923" y="1" relative="1" as="geometry">
                        <mxPoint x="14" y="1" as="offset"/>
                    </mxGeometry>
                </mxCell>
                <mxCell id="5NDpW_lBINnjD9rPaOJI-26" value="5" style="ellipse;whiteSpace=wrap;html=1;aspect=fixed;" parent="1" vertex="1">
                    <mxGeometry x="280" y="350" width="40" height="40" as="geometry"/>
                </mxCell>
                <mxCell id="5NDpW_lBINnjD9rPaOJI-33" value="" style="edgeStyle=orthogonalEdgeStyle;rounded=0;orthogonalLoop=1;jettySize=auto;html=1;entryX=1;entryY=0.5;entryDx=0;entryDy=0;" parent="1" source="5NDpW_lBINnjD9rPaOJI-32" target="5NDpW_lBINnjD9rPaOJI-1" edge="1">
                    <mxGeometry relative="1" as="geometry">
                        <mxPoint x="190" y="90" as="targetPoint"/>
                        <Array as="points">
                            <mxPoint x="210" y="120"/>
                            <mxPoint x="210" y="120"/>
                        </Array>
                    </mxGeometry>
                </mxCell>
                <mxCell id="iPIs3-i2ElNaRHTesmu4-34" value="inicio primer&lt;br&gt;nivel" style="edgeLabel;html=1;align=center;verticalAlign=middle;resizable=0;points=[];" parent="5NDpW_lBINnjD9rPaOJI-33" vertex="1" connectable="0">
                    <mxGeometry x="-0.2667" y="-1" relative="1" as="geometry">
                        <mxPoint x="-6" y="1" as="offset"/>
                    </mxGeometry>
                </mxCell>
                <mxCell id="5NDpW_lBINnjD9rPaOJI-32" value="0" style="ellipse;whiteSpace=wrap;html=1;aspect=fixed;" parent="1" vertex="1">
                    <mxGeometry x="260" y="100" width="40" height="40" as="geometry"/>
                </mxCell>
                <mxCell id="5NDpW_lBINnjD9rPaOJI-37" style="edgeStyle=orthogonalEdgeStyle;rounded=0;orthogonalLoop=1;jettySize=auto;html=1;exitX=0.5;exitY=1;exitDx=0;exitDy=0;" parent="1" source="5NDpW_lBINnjD9rPaOJI-26" target="5NDpW_lBINnjD9rPaOJI-26" edge="1">
                    <mxGeometry relative="1" as="geometry"/>
                </mxCell>
                <mxCell id="iPIs3-i2ElNaRHTesmu4-29" style="edgeStyle=orthogonalEdgeStyle;rounded=0;orthogonalLoop=1;jettySize=auto;html=1;" parent="1" source="5NDpW_lBINnjD9rPaOJI-66" target="iPIs3-i2ElNaRHTesmu4-28" edge="1">
                    <mxGeometry relative="1" as="geometry"/>
                </mxCell>
                <mxCell id="iPIs3-i2ElNaRHTesmu4-30" value="Mostrar &quot;Bien hecho&quot;" style="edgeLabel;html=1;align=center;verticalAlign=middle;resizable=0;points=[];" parent="iPIs3-i2ElNaRHTesmu4-29" vertex="1" connectable="0">
                    <mxGeometry x="-0.3" relative="1" as="geometry">
                        <mxPoint x="-7" as="offset"/>
                    </mxGeometry>
                </mxCell>
                <mxCell id="5NDpW_lBINnjD9rPaOJI-66" value="19" style="ellipse;whiteSpace=wrap;html=1;aspect=fixed;" parent="1" vertex="1">
                    <mxGeometry x="670" y="820" width="40" height="40" as="geometry"/>
                </mxCell>
                <mxCell id="iPIs3-i2ElNaRHTesmu4-13" value="obejtos ++" style="edgeStyle=none;rounded=0;orthogonalLoop=1;jettySize=auto;html=1;entryX=0.5;entryY=0;entryDx=0;entryDy=0;" parent="1" source="iPIs3-i2ElNaRHTesmu4-3" target="5NDpW_lBINnjD9rPaOJI-21" edge="1">
                    <mxGeometry relative="1" as="geometry"/>
                </mxCell>
                <mxCell id="iPIs3-i2ElNaRHTesmu4-3" value="12" style="ellipse;whiteSpace=wrap;html=1;aspect=fixed;" parent="1" vertex="1">
                    <mxGeometry x="670" y="380" width="40" height="40" as="geometry"/>
                </mxCell>
                <mxCell id="iPIs3-i2ElNaRHTesmu4-7" style="edgeStyle=none;rounded=0;orthogonalLoop=1;jettySize=auto;html=1;exitX=1;exitY=0.5;exitDx=0;exitDy=0;entryX=0;entryY=0.5;entryDx=0;entryDy=0;" parent="1" source="5NDpW_lBINnjD9rPaOJI-14" target="iPIs3-i2ElNaRHTesmu4-3" edge="1">
                    <mxGeometry relative="1" as="geometry">
                        <mxPoint x="497.7382816833367" y="329.23868837673785" as="sourcePoint"/>
                        <mxPoint x="660" y="421" as="targetPoint"/>
                    </mxGeometry>
                </mxCell>
                <mxCell id="iPIs3-i2ElNaRHTesmu4-8" value="seleccionado[0]=true" style="edgeLabel;html=1;align=center;verticalAlign=middle;resizable=0;points=[];" parent="iPIs3-i2ElNaRHTesmu4-7" vertex="1" connectable="0">
                    <mxGeometry x="-0.2632" y="3" relative="1" as="geometry">
                        <mxPoint as="offset"/>
                    </mxGeometry>
                </mxCell>
                <mxCell id="iPIs3-i2ElNaRHTesmu4-9" style="edgeStyle=none;rounded=0;orthogonalLoop=1;jettySize=auto;html=1;exitX=1;exitY=0.5;exitDx=0;exitDy=0;entryX=-0.075;entryY=0.7;entryDx=0;entryDy=0;entryPerimeter=0;" parent="1" source="5NDpW_lBINnjD9rPaOJI-19" target="iPIs3-i2ElNaRHTesmu4-3" edge="1">
                    <mxGeometry relative="1" as="geometry">
                        <mxPoint x="507.7382816833367" y="339.23868837673785" as="sourcePoint"/>
                        <mxPoint x="658" y="418" as="targetPoint"/>
                    </mxGeometry>
                </mxCell>
                <mxCell id="iPIs3-i2ElNaRHTesmu4-10" value="seleccionado[0]=true" style="edgeLabel;html=1;align=center;verticalAlign=middle;resizable=0;points=[];" parent="iPIs3-i2ElNaRHTesmu4-9" vertex="1" connectable="0">
                    <mxGeometry x="-0.2632" y="3" relative="1" as="geometry">
                        <mxPoint as="offset"/>
                    </mxGeometry>
                </mxCell>
                <mxCell id="iPIs3-i2ElNaRHTesmu4-11" style="edgeStyle=none;rounded=0;orthogonalLoop=1;jettySize=auto;html=1;exitX=1;exitY=0.5;exitDx=0;exitDy=0;entryX=0;entryY=1;entryDx=0;entryDy=0;" parent="1" source="5NDpW_lBINnjD9rPaOJI-23" target="iPIs3-i2ElNaRHTesmu4-3" edge="1">
                    <mxGeometry relative="1" as="geometry">
                        <mxPoint x="517.7382816833367" y="349.23868837673785" as="sourcePoint"/>
                        <mxPoint x="692.2833692944041" y="440.7198601065927" as="targetPoint"/>
                    </mxGeometry>
                </mxCell>
                <mxCell id="iPIs3-i2ElNaRHTesmu4-12" value="seleccionado[0]=true" style="edgeLabel;html=1;align=center;verticalAlign=middle;resizable=0;points=[];" parent="iPIs3-i2ElNaRHTesmu4-11" vertex="1" connectable="0">
                    <mxGeometry x="-0.2632" y="3" relative="1" as="geometry">
                        <mxPoint as="offset"/>
                    </mxGeometry>
                </mxCell>
                <mxCell id="5NDpW_lBINnjD9rPaOJI-17" value="17" style="ellipse;whiteSpace=wrap;html=1;aspect=fixed;" parent="1" vertex="1">
                    <mxGeometry x="800" y="570" width="40" height="40" as="geometry"/>
                </mxCell>
                <mxCell id="iPIs3-i2ElNaRHTesmu4-19" value="14" style="ellipse;whiteSpace=wrap;html=1;aspect=fixed;" parent="1" vertex="1">
                    <mxGeometry x="450" y="585" width="40" height="40" as="geometry"/>
                </mxCell>
                <mxCell id="iPIs3-i2ElNaRHTesmu4-32" style="edgeStyle=orthogonalEdgeStyle;rounded=0;orthogonalLoop=1;jettySize=auto;html=1;entryX=1;entryY=0.5;entryDx=0;entryDy=0;" parent="1" source="iPIs3-i2ElNaRHTesmu4-28" target="iPIs3-i2ElNaRHTesmu4-31" edge="1">
                    <mxGeometry relative="1" as="geometry"/>
                </mxCell>
                <mxCell id="iPIs3-i2ElNaRHTesmu4-33" value="Fin Nivel 1" style="edgeLabel;html=1;align=center;verticalAlign=middle;resizable=0;points=[];" parent="iPIs3-i2ElNaRHTesmu4-32" vertex="1" connectable="0">
                    <mxGeometry x="0.2222" y="-2" relative="1" as="geometry">
                        <mxPoint x="19" y="2" as="offset"/>
                    </mxGeometry>
                </mxCell>
                <mxCell id="iPIs3-i2ElNaRHTesmu4-28" value="20" style="ellipse;whiteSpace=wrap;html=1;aspect=fixed;" parent="1" vertex="1">
                    <mxGeometry x="450" y="820" width="40" height="40" as="geometry"/>
                </mxCell>
                <mxCell id="iPIs3-i2ElNaRHTesmu4-31" value="21" style="ellipse;whiteSpace=wrap;html=1;aspect=fixed;" parent="1" vertex="1">
                    <mxGeometry x="280" y="820" width="40" height="40" as="geometry"/>
                </mxCell>
                <mxCell id="3" value="&lt;font style=&quot;font-size: 11px&quot;&gt;enable objeto globo&lt;br&gt;Pedirseleccionar globo&lt;/font&gt;" style="edgeStyle=none;rounded=0;orthogonalLoop=1;jettySize=auto;html=1;exitX=0.35;exitY=1.05;exitDx=0;exitDy=0;exitPerimeter=0;entryX=0;entryY=0.5;entryDx=0;entryDy=0;" edge="1" parent="1" source="iPIs3-i2ElNaRHTesmu4-19" target="5NDpW_lBINnjD9rPaOJI-24">
                    <mxGeometry x="0.1022" y="-8" relative="1" as="geometry">
                        <mxPoint as="offset"/>
                        <mxPoint x="299.9978643762689" y="600.0021356237309" as="sourcePoint"/>
                        <mxPoint x="500" y="710" as="targetPoint"/>
                    </mxGeometry>
                </mxCell>
            </root>
        </mxGraphModel>
    </diagram>
</mxfile>